HIERARCHY
ROOT Pelvis
{
	OFFSET 0.000000 0.000000 0.000000
	CHANNELS 6 Xposition Yposition Zposition Zrotation Yrotation Xrotation 
	JOINT Left_hip
	{
		OFFSET 0.070241 -0.085575 -0.010474
		CHANNELS 3 Zrotation Yrotation Xrotation
		JOINT Left_knee
		{
			OFFSET 0.032125 -0.356873 -0.000555
			CHANNELS 3 Zrotation Yrotation Xrotation
			JOINT Left_ankle
			{
				OFFSET -0.010961 -0.370212 -0.042278
				CHANNELS 3 Zrotation Yrotation Xrotation
				JOINT Left_foot
				{
					OFFSET 0.023322 -0.052281 0.110104
					CHANNELS 3 Zrotation Yrotation Xrotation
					End Site
					{
						OFFSET 0.000000 0.000000 0.000000
					}
				}
			}
		}
	}
	JOINT Right_hip
	{
		OFFSET -0.068518 -0.084320 -0.007402
		CHANNELS 3 Zrotation Yrotation Xrotation
		JOINT Right_knee
		{
			OFFSET -0.037345 -0.364815 -0.003619
			CHANNELS 3 Zrotation Yrotation Xrotation
			JOINT Right_ankle
			{
				OFFSET 0.013394 -0.370006 -0.039954
				CHANNELS 3 Zrotation Yrotation Xrotation
				JOINT Right_foot
				{
					OFFSET -0.019600 -0.045455 0.113223
					CHANNELS 3 Zrotation Yrotation Xrotation
					End Site
					{
						OFFSET 0.000000 0.000000 0.000000
					}
				}
			}
		}
	}
	JOINT Spine1
	{
		OFFSET -0.002404 0.098129 -0.018169
		CHANNELS 3 Zrotation Yrotation Xrotation
		JOINT Spine2
		{
			OFFSET 0.003989 0.127209 -0.001742
			CHANNELS 3 Zrotation Yrotation Xrotation
			JOINT Spine3
			{
				OFFSET 0.001758 0.046641 0.023475
				CHANNELS 3 Zrotation Yrotation Xrotation
				JOINT Neck
				{
					OFFSET -0.003759 0.194901 -0.039982
					CHANNELS 3 Zrotation Yrotation Xrotation
					JOINT Head
					{
						OFFSET 0.003999 0.063756 0.047665
						CHANNELS 3 Zrotation Yrotation Xrotation
						End Site
						{
							OFFSET 0.000000 0.000000 0.000000
						}
					}
				}
				JOINT Left_collar
				{
					OFFSET 0.071816 0.109048 -0.028973
					CHANNELS 3 Zrotation Yrotation Xrotation
					JOINT Left_shoulder
					{
						OFFSET 0.084027 0.032269 -0.006525
						CHANNELS 3 Zrotation Yrotation Xrotation
						JOINT Left_elbow
						{
							OFFSET 0.243854 -0.013992 -0.025905
							CHANNELS 3 Zrotation Yrotation Xrotation
							JOINT Left_wrist
							{
								OFFSET 0.232156 0.008196 -0.000339
								CHANNELS 3 Zrotation Yrotation Xrotation
								JOINT Left_palm
								{
									OFFSET 0.075377 -0.009461 -0.012494
									CHANNELS 3 Zrotation Yrotation Xrotation
									End Site
									{
										OFFSET 0.000000 0.000000 0.000000
									}
								}
							}
						}
					}
				}
				JOINT Right_collar
				{
					OFFSET -0.073768 0.107001 -0.033755
					CHANNELS 3 Zrotation Yrotation Xrotation
					JOINT Right_shoulder
					{
						OFFSET -0.086837 0.032868 -0.009431
						CHANNELS 3 Zrotation Yrotation Xrotation
						JOINT Right_elbow
						{
							OFFSET -0.236446 -0.012544 -0.018747
							CHANNELS 3 Zrotation Yrotation Xrotation
							JOINT Right_wrist
							{
								OFFSET -0.236110 0.006124 -0.004327
								CHANNELS 3 Zrotation Yrotation Xrotation
								JOINT Right_palm
								{
									OFFSET -0.074800 -0.006875 -0.009610
									CHANNELS 3 Zrotation Yrotation Xrotation
									End Site
									{
										OFFSET 0.000000 0.000000 0.000000
									}
								}
							}
						}
					}
				}
			}
		}
	}
}
MOTION
Frames: 14
Frame Time: 0.100000
0.000000 0.000000 0.000000 176.766399 20.269846 -10.431787 -1.362721 4.184450 0.055505 1.657063 -9.734335 -5.975529 -4.573642 26.463514 1.383490 13.453754 -5.060538 -4.711680 3.253002 -4.965284 -2.172308 -0.087196 5.858704 1.120572 -0.117304 -23.223735 -4.765992 2.004111 8.165658 4.332645 0.025319 3.156092 0.654421 -0.210367 -2.126374 -4.142443 1.307246 3.022991 -0.519046 -3.613066 17.931308 1.872146 5.673440 19.234354 -0.683392 -6.342119 -0.176270 -11.157296 6.836414 -16.361296 -17.480181 1.910589 8.826100 -8.657449 -1.215134 -5.899310 32.806223 -5.550513 -8.443039 -3.331582 7.745216 0.602568 -5.376177 -1.105201 8.525319 -21.551165 -7.182089 -13.460272 -16.000243 1.480320 1.884192 28.395671 11.315082 10.113851 -3.824755 
0.000025 0.000118 -0.000407 176.814077 19.786452 -10.441936 -1.378047 4.117003 0.147575 1.757288 -9.583489 -6.084412 -4.385316 26.725993 1.420988 13.444982 -5.111256 -4.640775 3.298191 -4.717509 -2.195150 -0.093553 6.212617 1.099583 -0.129585 -23.071458 -4.664890 2.107753 8.209243 4.326074 -0.074088 3.244905 0.297448 -0.180524 -1.971639 -4.068351 1.244132 3.127177 -0.774311 -3.547910 17.893614 1.855999 5.580789 19.074172 -0.750736 -6.439795 0.336049 -11.307453 7.027086 -16.061704 -17.160895 1.674725 8.872805 -8.297506 -1.720416 -5.714059 33.108956 -5.419422 -8.425789 -3.423105 8.082908 0.478691 -5.471316 -1.365851 8.862450 -21.537328 -6.960556 -14.353588 -16.238048 1.746812 1.679218 28.621824 11.240609 10.063304 -3.853749 
-0.000724 -0.000043 0.000909 176.874058 19.635817 -10.456233 -1.411557 4.130996 0.364046 1.762250 -9.586384 -6.195395 -4.258910 26.811536 1.333558 13.371223 -5.163536 -4.364252 3.258474 -4.682526 -1.896414 -0.184946 6.277021 0.734087 -0.221129 -22.998109 -4.279661 2.320850 7.976648 4.245096 -0.146504 3.201135 -0.003057 -0.054555 -1.985011 -4.127607 1.221925 3.067481 -0.815204 -3.587014 17.901969 1.982625 5.247316 18.996067 -0.934899 -6.261940 0.882765 -11.343707 7.343246 -15.596762 -17.265301 1.537968 10.174394 -7.979173 -1.899468 -5.391041 33.749912 -4.886847 -8.227254 -3.215221 8.200874 0.110251 -5.696721 -1.644905 9.077181 -21.660894 -6.970418 -14.692509 -16.081840 1.687983 1.551803 29.221758 10.996532 9.837317 -3.772787 
-0.002518 -0.000285 0.002767 176.966045 19.549163 -10.587538 -1.491151 4.263204 0.615513 1.647732 -9.471196 -5.979951 -4.249407 26.681345 0.978482 13.255289 -5.152672 -4.077053 3.098136 -4.835944 -1.430774 -0.262977 6.156970 0.377510 -0.429367 -22.840847 -3.775310 2.868868 7.710254 4.277618 -0.081269 3.230461 -0.305133 0.042002 -1.954758 -3.798697 1.175241 3.060846 -0.881970 -3.330986 17.993803 2.484342 4.886761 18.919344 -1.162480 -6.314877 1.222913 -11.284488 7.604790 -15.220395 -17.294174 1.646807 10.486631 -8.184885 -2.023103 -5.352291 33.783897 -4.806605 -8.196000 -3.350632 8.192870 -0.173632 -5.694732 -2.051466 8.818543 -21.821945 -7.205151 -14.728647 -16.430072 1.697681 1.574080 29.075734 11.005019 9.755403 -3.853386 
-0.004495 -0.000656 0.005028 177.032773 19.556840 -10.666927 -1.631315 4.229016 1.060078 1.749679 -9.435817 -6.253638 -4.257794 26.676316 0.833449 13.255307 -5.104151 -3.776293 2.991525 -4.989177 -0.764420 -0.409993 5.992774 -0.407327 -0.709139 -22.703824 -3.406391 3.519200 7.495985 4.524253 -0.044477 3.290325 -0.775607 0.208874 -1.991990 -3.451734 1.129496 3.060283 -0.987487 -2.741326 17.644199 3.516589 5.001639 18.755331 -0.513100 -6.628670 1.439626 -11.238929 7.703084 -15.461568 -17.287497 1.647803 10.238121 -8.718626 -1.651137 -5.661344 33.264652 -4.929773 -8.135140 -3.164288 8.355534 -0.320316 -5.779547 -2.457079 9.030672 -21.967289 -7.148326 -14.811126 -16.973047 1.282308 1.734559 29.093416 11.014198 9.717559 -3.779449 
-0.006073 -0.000906 0.007152 177.097466 19.445985 -10.695171 -1.672999 4.329215 1.313085 1.710344 -9.273295 -6.289889 -4.319999 26.504386 0.611835 13.254633 -5.013433 -3.574281 2.907054 -5.033723 -0.245324 -0.523116 5.865089 -1.028663 -0.847803 -22.462476 -3.226030 3.909667 7.280527 4.704798 -0.006483 3.332653 -1.139830 0.357065 -2.030252 -3.022000 1.090363 3.042740 -1.060732 -2.369626 17.390798 4.348262 4.924601 18.456703 -0.145516 -7.003802 1.503500 -11.111134 7.350766 -15.693516 -17.078192 2.150928 9.839397 -9.092247 -0.373646 -6.442526 32.600737 -5.012182 -7.996043 -3.002671 8.673021 -0.265561 -5.807014 -2.087400 9.320318 -21.799764 -7.438678 -14.184980 -17.714130 0.088265 2.586117 28.221096 11.055074 9.515689 -3.482897 
-0.006713 -0.000580 0.007903 177.347935 19.316400 -10.802246 -1.838927 4.055232 1.358109 1.551043 -8.262783 -5.773622 -3.762335 25.555604 0.687840 12.542911 -4.318732 -4.108846 2.661195 -4.697876 -0.232418 -0.533019 5.204380 -0.502047 -0.793164 -21.919194 -3.716379 3.540703 7.533263 5.078309 -0.041125 3.176604 -0.779766 0.461133 -1.682834 -2.970700 0.518358 2.913188 -0.526357 -1.937743 13.183886 3.752782 4.067702 14.504758 1.112165 -7.776741 4.888639 -10.752404 -0.157240 -17.920023 -14.157953 7.413398 1.959003 -13.873698 10.079761 -9.264493 22.146481 -5.494788 -6.686945 -0.699539 9.727578 -2.594473 -6.141072 5.081452 11.439019 -18.293255 -11.490708 -7.917900 -21.029434 -10.203636 5.633830 19.115527 11.108123 8.544740 -0.926938 
-0.007058 0.002267 0.008567 177.847788 18.727271 -10.291471 -2.180960 3.635662 1.018554 1.503367 -5.295845 -5.534745 -3.091116 22.870012 0.568987 11.191325 -2.734342 -4.368897 2.301241 -3.815513 -0.674261 -0.526674 3.363098 -0.373863 -2.815795 -20.135480 -4.022875 7.047130 8.105375 8.084844 0.025877 3.113800 -1.145685 0.611672 -0.999252 -0.435815 -0.748142 2.735500 -1.820801 -0.114296 5.945613 1.166374 2.097043 7.625769 4.627588 -15.547076 8.780844 -9.299774 -13.997639 -16.610420 -4.811340 18.316418 -18.617785 -28.893140 26.361529 -11.131007 -1.867123 -9.473470 -5.638437 2.149633 16.699119 -4.013593 -4.451000 16.378192 10.435697 -8.947187 -16.863765 6.702590 -27.734921 -26.206531 7.619042 1.798092 12.581986 7.723472 2.680435 
-0.007292 0.004172 0.008400 178.526950 17.653140 -9.120260 -2.617945 2.886107 0.055371 1.415140 -2.193163 -5.564592 -1.465841 20.571206 0.923084 9.090996 -0.509162 -3.715561 1.952475 -2.892871 -2.342693 -0.566448 1.661921 0.451574 -3.656833 -17.803405 -4.793750 8.160038 6.971590 9.722170 0.308138 2.893273 -1.868249 0.440656 -1.040747 2.594719 -1.730520 2.500437 -4.531588 1.248763 1.394686 -1.191005 0.961620 3.991137 8.295753 -24.313431 7.329044 -6.678637 -31.231296 -11.987179 6.563479 15.761186 -20.523567 -24.224729 22.407928 -10.248378 -1.038315 -10.562987 -6.386674 0.417413 24.551838 -0.601166 -0.936942 30.054310 10.392278 2.125130 -12.630576 11.633969 -21.176987 -24.245827 7.922398 1.500680 12.935550 8.066501 2.189724 
-0.008622 0.004245 0.009420 178.355304 17.260612 -10.796308 -1.026559 4.468477 2.154765 -0.138598 1.004878 -4.958983 -0.553197 13.229829 0.001436 5.109215 4.757303 -2.830429 1.962737 -3.857808 0.168254 -0.637413 -1.264032 -0.352793 1.775161 -12.644288 -5.921479 -1.369034 6.751334 8.186532 0.130002 3.428959 0.814359 1.031407 -1.667631 4.549347 -1.685904 1.953107 -7.205538 1.402526 2.866954 -2.494522 0.380610 -0.200311 8.850597 -28.607170 -3.488306 -2.357289 -49.666554 -6.856437 18.873227 4.054723 -16.071869 0.488344 -1.961101 -4.067652 11.973942 -13.640235 -9.726851 -10.897977 30.375522 9.976151 2.591057 45.144095 7.027947 17.198267 -7.171620 13.748750 -2.552352 1.953521 4.703453 12.580092 15.150449 10.226496 -6.037511 
-0.009759 0.003682 0.007898 177.915474 18.211461 -10.900628 -0.482936 3.997925 1.683276 -0.721705 2.716665 -3.676833 -2.352630 11.058076 -0.780948 8.666408 8.415754 -5.281756 1.832390 -3.480124 -0.224936 -0.458982 -1.864618 0.715555 3.458776 -11.016711 -6.247142 -3.619016 5.536461 6.559937 0.327243 2.892085 0.441964 0.942751 -1.577908 5.902890 -0.987647 1.557998 -6.767875 1.084583 5.203172 -2.598191 -1.279182 -1.205511 7.093350 -28.182686 -12.141867 1.409399 -54.297468 -10.212051 28.766894 -18.682522 -47.903318 41.187660 -2.955628 -8.545405 19.382469 -15.342426 -10.449468 -16.283290 30.537707 16.644609 7.331811 50.739607 9.535567 26.292357 10.049233 37.464252 27.284020 4.950727 5.655889 15.457845 15.215352 10.707489 -10.060361 
-0.010311 0.002268 0.010324 178.009981 18.309013 -10.405430 -1.118034 3.439325 -0.655980 -0.324422 -2.369767 0.176147 -0.498663 10.771548 -0.120959 5.271256 7.752785 -15.312710 1.975504 -3.807987 -3.898733 -1.235515 0.471322 6.809894 5.486346 -11.983883 -6.154285 -5.671518 6.363486 4.225544 -0.352353 3.625149 0.981008 1.297299 -2.336127 5.461532 -0.824994 3.672959 -7.596465 -2.862565 -0.927495 -4.767419 1.529999 2.675029 12.249422 -19.761832 -16.644177 -1.596065 -55.865877 -19.279901 36.227046 -71.835753 -70.782762 106.993548 18.592513 -10.303857 20.143012 -22.441727 -18.270473 -15.440870 25.343296 19.261079 6.728206 53.091402 9.819704 30.565193 32.078001 59.591273 59.992637 -14.581631 11.509604 13.999133 23.066731 18.543964 -9.285804 
-0.010885 0.004253 0.019956 178.357946 18.115605 -12.482189 -1.357820 1.401044 1.033330 -1.690872 -6.733519 3.540124 0.233160 9.489875 -2.805578 5.828391 8.548768 -17.285477 1.416101 -2.768951 -7.516905 -0.598576 0.568301 19.447464 5.987816 -12.846971 -9.063242 -8.820050 7.666263 2.756255 -1.183477 3.388470 3.941341 1.720576 -2.033620 3.209585 -0.076633 3.588821 -5.346860 -3.880224 -1.162012 -3.958648 2.496061 3.711014 12.871139 -16.439620 -16.154516 -3.788934 -56.277691 -23.983809 35.061681 -127.204783 -74.621619 155.564316 16.703648 -6.813360 7.246037 -25.628077 -18.080929 -13.110468 23.054066 18.960286 4.238329 53.052704 9.736163 31.049741 46.487997 69.949859 70.963031 -14.754666 9.863776 6.347511 25.087642 18.360281 -7.461816 
-0.011012 0.005065 0.038266 177.722073 18.302862 -14.164764 0.086897 3.139318 2.635414 -2.474735 -5.597637 5.750706 1.766866 10.182928 -3.287570 4.041062 8.306675 -18.757133 0.660171 -1.351222 -12.384247 2.165117 3.172418 29.156452 5.534027 -10.411564 -9.674036 -8.586026 8.033887 2.638162 -0.654453 2.009094 5.785678 1.772320 -1.519562 3.029484 -0.462087 3.398933 -4.708241 -2.773399 -1.471793 -4.043790 1.469001 5.130282 13.082056 -17.996715 -12.991261 -3.387966 -56.505896 -18.559004 32.777039 -139.133975 -77.035350 162.572582 16.311888 -3.702240 0.978402 -26.270814 -17.997044 -12.420160 23.784740 16.382694 4.319660 53.265392 9.473567 30.159387 32.036469 66.455784 54.272905 -16.190784 7.657726 8.357792 25.528503 17.805470 -7.668526 
